<mxfile host="65bd71144e">
    <diagram id="lr-IItDiQEG14OA11sK_" name="Page-1">
        <mxGraphModel dx="1712" dy="1230" grid="1" gridSize="10" guides="1" tooltips="1" connect="1" arrows="1" fold="1" page="0" pageScale="1" pageWidth="1100" pageHeight="1700" background="none" math="0" shadow="1">
            <root>
                <mxCell id="0"/>
                <mxCell id="31" value="Untitled Layer" parent="0" visible="0"/>
                <mxCell id="33" value="" style="points=[[0,0,0],[0.25,0,0],[0.5,0,0],[0.75,0,0],[1,0,0],[0,1,0],[0.25,1,0],[0.5,1,0],[0.75,1,0],[1,1,0],[0,0.25,0],[0,0.5,0],[0,0.75,0],[1,0.25,0],[1,0.5,0],[1,0.75,0]];outlineConnect=0;fontColor=#232F3E;gradientColor=#945DF2;gradientDirection=north;fillColor=#5A30B5;strokeColor=#ffffff;dashed=0;verticalLabelPosition=bottom;verticalAlign=top;align=center;html=1;fontSize=12;fontStyle=0;aspect=fixed;shape=mxgraph.aws4.resourceIcon;resIcon=mxgraph.aws4.kinesis_data_streams;rounded=0;" parent="31" vertex="1">
                    <mxGeometry x="1010" y="450" width="78" height="78" as="geometry"/>
                </mxCell>
                <mxCell id="43" value="" style="outlineConnect=0;fontColor=#232F3E;gradientColor=none;fillColor=#3F8624;strokeColor=none;dashed=0;verticalLabelPosition=bottom;verticalAlign=top;align=center;html=1;fontSize=12;fontStyle=0;aspect=fixed;pointerEvents=1;shape=mxgraph.aws4.lambda_function;rounded=0;" parent="31" vertex="1">
                    <mxGeometry x="900" y="612" width="78" height="78" as="geometry"/>
                </mxCell>
                <mxCell id="53" value="Amazon DynamoDB" style="outlineConnect=0;fontColor=#232F3E;gradientColor=none;strokeColor=#ffffff;fillColor=#232F3E;dashed=0;verticalLabelPosition=middle;verticalAlign=bottom;align=center;html=1;whiteSpace=wrap;fontSize=10;fontStyle=1;spacing=3;shape=mxgraph.aws4.productIcon;prIcon=mxgraph.aws4.dynamodb;rounded=0;" parent="31" vertex="1">
                    <mxGeometry x="1120" y="580" width="80" height="110" as="geometry"/>
                </mxCell>
                <mxCell id="62" value="" style="points=[[0,0,0],[0.25,0,0],[0.5,0,0],[0.75,0,0],[1,0,0],[0,1,0],[0.25,1,0],[0.5,1,0],[0.75,1,0],[1,1,0],[0,0.25,0],[0,0.5,0],[0,0.75,0],[1,0.25,0],[1,0.5,0],[1,0.75,0]];outlineConnect=0;fontColor=#232F3E;gradientColor=#4D72F3;gradientDirection=north;fillColor=#3334B9;strokeColor=#ffffff;dashed=0;verticalLabelPosition=bottom;verticalAlign=top;align=center;html=1;fontSize=12;fontStyle=0;aspect=fixed;shape=mxgraph.aws4.resourceIcon;resIcon=mxgraph.aws4.dynamodb;rounded=0;" parent="31" vertex="1">
                    <mxGeometry x="1130" y="460" width="78" height="78" as="geometry"/>
                </mxCell>
                <mxCell id="64" value="" style="points=[[0,0,0],[0.25,0,0],[0.5,0,0],[0.75,0,0],[1,0,0],[0,1,0],[0.25,1,0],[0.5,1,0],[0.75,1,0],[1,1,0],[0,0.25,0],[0,0.5,0],[0,0.75,0],[1,0.25,0],[1,0.5,0],[1,0.75,0]];outlineConnect=0;fontColor=#232F3E;gradientColor=#F78E04;gradientDirection=north;fillColor=#D05C17;strokeColor=#ffffff;dashed=0;verticalLabelPosition=bottom;verticalAlign=top;align=center;html=1;fontSize=12;fontStyle=0;aspect=fixed;shape=mxgraph.aws4.resourceIcon;resIcon=mxgraph.aws4.lambda;rounded=0;" parent="31" vertex="1">
                    <mxGeometry x="910" y="480" width="78" height="78" as="geometry"/>
                </mxCell>
                <mxCell id="65" value="" style="points=[[0,0,0],[0.25,0,0],[0.5,0,0],[0.75,0,0],[1,0,0],[0,1,0],[0.25,1,0],[0.5,1,0],[0.75,1,0],[1,1,0],[0,0.25,0],[0,0.5,0],[0,0.75,0],[1,0.25,0],[1,0.5,0],[1,0.75,0]];outlineConnect=0;fontColor=#232F3E;gradientColor=#60A337;gradientDirection=north;fillColor=#277116;strokeColor=#ffffff;dashed=0;verticalLabelPosition=bottom;verticalAlign=top;align=center;html=1;fontSize=12;fontStyle=0;aspect=fixed;shape=mxgraph.aws4.resourceIcon;resIcon=mxgraph.aws4.iot_core;rounded=0;" parent="31" vertex="1">
                    <mxGeometry x="700" y="469.5" width="78" height="78" as="geometry"/>
                </mxCell>
                <mxCell id="66" value="Amazon IoT Core" style="outlineConnect=0;fontColor=#232F3E;gradientColor=none;strokeColor=#ffffff;fillColor=#232F3E;dashed=0;verticalLabelPosition=middle;verticalAlign=bottom;align=center;html=1;whiteSpace=wrap;fontSize=10;fontStyle=1;spacing=3;shape=mxgraph.aws4.productIcon;prIcon=mxgraph.aws4.iot_core;rounded=0;" parent="31" vertex="1">
                    <mxGeometry x="1020" y="580" width="80" height="110" as="geometry"/>
                </mxCell>
                <mxCell id="68" value="" style="outlineConnect=0;dashed=0;verticalLabelPosition=bottom;verticalAlign=top;align=center;html=1;shape=mxgraph.aws3.mqtt_protocol;fillColor=#5294CF;gradientColor=none;rounded=0;" parent="31" vertex="1">
                    <mxGeometry x="806.5" y="486" width="63" height="66" as="geometry"/>
                </mxCell>
                <mxCell id="69" value="" style="outlineConnect=0;dashed=0;verticalLabelPosition=bottom;verticalAlign=top;align=center;html=1;shape=mxgraph.aws3.generic;fillColor=#5294CF;gradientColor=none;rounded=0;" parent="31" vertex="1">
                    <mxGeometry x="599.5" y="468" width="79.5" height="79.5" as="geometry"/>
                </mxCell>
                <mxCell id="70" value="" style="outlineConnect=0;dashed=0;verticalLabelPosition=bottom;verticalAlign=top;align=center;html=1;shape=mxgraph.aws3.topic;fillColor=#5294CF;gradientColor=none;rounded=0;" parent="31" vertex="1">
                    <mxGeometry x="826" y="618" width="49.5" height="66" as="geometry"/>
                </mxCell>
                <mxCell id="71" value="" style="outlineConnect=0;dashed=0;verticalLabelPosition=bottom;verticalAlign=top;align=center;html=1;shape=mxgraph.aws3.monitoring;fillColor=#759C3E;gradientColor=none;rounded=0;" parent="31" vertex="1">
                    <mxGeometry x="599.5" y="601.25" width="81" height="67.5" as="geometry"/>
                </mxCell>
                <mxCell id="82" value="Generic" style="outlineConnect=0;fontColor=#232F3E;gradientColor=none;strokeColor=#232F3E;fillColor=#ffffff;dashed=0;verticalLabelPosition=bottom;verticalAlign=top;align=center;html=1;fontSize=12;fontStyle=0;aspect=fixed;shape=mxgraph.aws4.resourceIcon;resIcon=mxgraph.aws4.generic;rounded=0;" parent="31" vertex="1">
                    <mxGeometry x="709" y="618" width="60" height="60" as="geometry"/>
                </mxCell>
                <mxCell id="280" value="" style="edgeStyle=orthogonalEdgeStyle;html=1;endArrow=block;elbow=vertical;startArrow=block;startFill=1;endFill=1;strokeColor=#CC6600;rounded=0;strokeWidth=2;" parent="31" edge="1">
                    <mxGeometry width="100" relative="1" as="geometry">
                        <mxPoint x="150" y="-140" as="sourcePoint"/>
                        <mxPoint x="340" y="-111" as="targetPoint"/>
                        <Array as="points">
                            <mxPoint x="150" y="-111"/>
                        </Array>
                    </mxGeometry>
                </mxCell>
                <mxCell id="281" value="Text" style="edgeLabel;html=1;align=center;verticalAlign=middle;resizable=0;points=[];fontColor=none;noLabel=1;rounded=0;" parent="280" vertex="1" connectable="0">
                    <mxGeometry x="0.2567" y="-3" relative="1" as="geometry">
                        <mxPoint as="offset"/>
                    </mxGeometry>
                </mxCell>
                <mxCell id="282" value="" style="edgeStyle=orthogonalEdgeStyle;html=1;endArrow=block;elbow=vertical;startArrow=block;startFill=1;endFill=1;strokeColor=#CC6600;rounded=0;fontColor=#009900;entryX=1;entryY=0.5;entryDx=0;entryDy=0;entryPerimeter=0;exitX=1.014;exitY=0.56;exitDx=0;exitDy=0;exitPerimeter=0;strokeWidth=2;" parent="31" edge="1">
                    <mxGeometry width="100" relative="1" as="geometry">
                        <mxPoint x="417.98" y="-311.02091984231276" as="sourcePoint"/>
                        <mxPoint x="540" y="-311" as="targetPoint"/>
                    </mxGeometry>
                </mxCell>
                <mxCell id="283" value="" style="edgeStyle=orthogonalEdgeStyle;html=1;endArrow=block;elbow=vertical;startArrow=oval;startFill=1;endFill=1;strokeColor=#CC6600;rounded=0;fontColor=#009900;entryX=0.457;entryY=1.016;entryDx=0;entryDy=0;entryPerimeter=0;exitX=0.5;exitY=0;exitDx=0;exitDy=0;exitPerimeter=0;strokeWidth=2;" parent="31" edge="1">
                    <mxGeometry width="100" relative="1" as="geometry">
                        <mxPoint x="379" y="-142" as="sourcePoint"/>
                        <mxPoint x="378.99" y="-257.9799106438895" as="targetPoint"/>
                    </mxGeometry>
                </mxCell>
                <object label="Amazon DynamoDB" id="284">
                    <mxCell style="outlineConnect=0;fontColor=#232F3E;gradientColor=none;strokeColor=#ffffff;fillColor=#2D7600;dashed=0;verticalLabelPosition=middle;verticalAlign=bottom;align=center;html=1;whiteSpace=wrap;fontSize=10;fontStyle=1;spacing=3;shape=mxgraph.aws4.productIcon;prIcon=mxgraph.aws4.dynamodb;rounded=0;" parent="31" vertex="1">
                        <mxGeometry x="540" y="-145" width="80" height="110" as="geometry"/>
                    </mxCell>
                </object>
                <mxCell id="285" value="Amazon IoT Core" style="sketch=0;outlineConnect=0;fontColor=#232F3E;gradientColor=none;strokeColor=#ffffff;fillColor=#2D7600;dashed=0;verticalLabelPosition=middle;verticalAlign=bottom;align=center;html=1;whiteSpace=wrap;fontSize=10;fontStyle=1;spacing=3;shape=mxgraph.aws4.productIcon;prIcon=mxgraph.aws4.iot_core;" parent="31" vertex="1">
                    <mxGeometry x="343" y="-141" width="80" height="110" as="geometry"/>
                </mxCell>
                <mxCell id="286" value="" style="group;strokeColor=#2D7600;fillColor=default;" parent="31" vertex="1" connectable="0">
                    <mxGeometry x="340" y="-370" width="80" height="110" as="geometry"/>
                </mxCell>
                <mxCell id="287" value="Rules" style="whiteSpace=wrap;html=1;labelBackgroundColor=none;labelBorderColor=none;fontSize=11;fontColor=#232F3E;strokeColor=#FFFFFF;fillColor=#FFFFFF;fontStyle=1;verticalAlign=bottom;" parent="286" vertex="1">
                    <mxGeometry width="80" height="110" as="geometry"/>
                </mxCell>
                <mxCell id="288" value="" style="sketch=0;outlineConnect=0;fontColor=#232F3E;gradientColor=none;fillColor=#2D7600;strokeColor=#FFFFFF;dashed=0;verticalLabelPosition=bottom;verticalAlign=bottom;align=center;html=1;fontSize=12;fontStyle=1;pointerEvents=1;shape=mxgraph.aws4.rule;shadow=0;labelBackgroundColor=default;" parent="286" vertex="1">
                    <mxGeometry y="1" width="80" height="80" as="geometry"/>
                </mxCell>
                <mxCell id="289" value="" style="edgeStyle=orthogonalEdgeStyle;html=1;endArrow=oval;elbow=vertical;startArrow=block;startFill=1;endFill=1;strokeColor=#CC6600;rounded=0;fontColor=#009900;entryX=0.457;entryY=1.016;entryDx=0;entryDy=0;entryPerimeter=0;strokeWidth=2;exitX=0.494;exitY=0;exitDx=0;exitDy=0;exitPerimeter=0;" parent="31" source="284" edge="1">
                    <mxGeometry width="100" relative="1" as="geometry">
                        <mxPoint x="580" y="-160" as="sourcePoint"/>
                        <mxPoint x="579.5" y="-259.9999106438895" as="targetPoint"/>
                        <Array as="points"/>
                    </mxGeometry>
                </mxCell>
                <mxCell id="290" value="" style="group" parent="31" vertex="1" connectable="0">
                    <mxGeometry x="540" y="-368.65" width="80" height="110" as="geometry"/>
                </mxCell>
                <mxCell id="291" value="Kinesis" style="whiteSpace=wrap;html=1;labelBackgroundColor=none;labelBorderColor=none;fontSize=11;fontColor=#232F3E;strokeColor=#FFFFFF;fillColor=#FFFFFF;fontStyle=1;verticalAlign=bottom;" parent="290" vertex="1">
                    <mxGeometry width="80" height="110" as="geometry"/>
                </mxCell>
                <mxCell id="292" value="c" style="points=[[0,0,0],[0.25,0,0],[0.5,0,0],[0.75,0,0],[1,0,0],[0,1,0],[0.25,1,0],[0.5,1,0],[0.75,1,0],[1,1,0],[0,0.25,0],[0,0.5,0],[0,0.75,0],[1,0.25,0],[1,0.5,0],[1,0.75,0]];outlineConnect=0;fontColor=#232F3E;gradientDirection=north;fillColor=#2D7600;strokeColor=#FFFFFF;dashed=0;verticalLabelPosition=middle;verticalAlign=bottom;align=center;html=1;fontSize=10;fontStyle=1;aspect=fixed;shape=mxgraph.aws4.resourceIcon;resIcon=mxgraph.aws4.kinesis_data_streams;rounded=0;rotation=0;backgroundOutline=0;whiteSpace=wrap;labelBackgroundColor=none;labelBorderColor=none;labelPosition=center;" parent="290" vertex="1">
                    <mxGeometry x="1" y="1" width="78" height="78" as="geometry"/>
                </mxCell>
                <mxCell id="293" value="" style="edgeStyle=orthogonalEdgeStyle;html=1;endArrow=block;elbow=vertical;startArrow=oval;startFill=1;endFill=1;strokeColor=#CC6600;rounded=0;fontColor=#009900;exitX=1.014;exitY=0.56;exitDx=0;exitDy=0;exitPerimeter=0;strokeWidth=2;" parent="31" edge="1">
                    <mxGeometry width="100" relative="1" as="geometry">
                        <mxPoint x="623.98" y="-316.02091984231276" as="sourcePoint"/>
                        <mxPoint x="750" y="-316" as="targetPoint"/>
                    </mxGeometry>
                </mxCell>
                <mxCell id="294" style="edgeStyle=none;html=1;fontColor=#FFFFFF;" parent="31" source="303" edge="1">
                    <mxGeometry relative="1" as="geometry">
                        <mxPoint x="750" y="-314.65" as="targetPoint"/>
                        <Array as="points">
                            <mxPoint x="750" y="-315"/>
                        </Array>
                    </mxGeometry>
                </mxCell>
                <mxCell id="295" value="Text" style="text;html=1;resizable=0;autosize=1;align=center;verticalAlign=middle;points=[];fillColor=none;strokeColor=none;rounded=0;fontColor=#FFFFFF;" parent="31" vertex="1">
                    <mxGeometry x="560" y="-90" width="40" height="20" as="geometry"/>
                </mxCell>
                <mxCell id="296" value="Text" style="text;html=1;resizable=0;autosize=1;align=center;verticalAlign=middle;points=[];fillColor=none;strokeColor=none;rounded=0;fontColor=#FFFFFF;" parent="31" vertex="1">
                    <mxGeometry x="560" y="-90" width="40" height="20" as="geometry"/>
                </mxCell>
                <mxCell id="297" value="Telemetry Data" style="rounded=0;whiteSpace=wrap;html=1;fontColor=#FFFFFF;strokeColor=none;fillColor=none;fontStyle=1;fontSize=14;" parent="31" vertex="1">
                    <mxGeometry x="580" y="-220" width="120" height="30" as="geometry"/>
                </mxCell>
                <mxCell id="298" value="" style="endArrow=classic;startArrow=classic;html=1;fontSize=14;fontColor=#FFFFFF;" parent="31" edge="1">
                    <mxGeometry width="50" height="50" relative="1" as="geometry">
                        <mxPoint x="550" y="-50" as="sourcePoint"/>
                        <mxPoint x="600" y="-100" as="targetPoint"/>
                    </mxGeometry>
                </mxCell>
                <mxCell id="299" value="" style="endArrow=classic;startArrow=classic;html=1;fontSize=14;fontColor=#FFFFFF;" parent="31" edge="1">
                    <mxGeometry width="50" height="50" relative="1" as="geometry">
                        <mxPoint x="550" y="-50" as="sourcePoint"/>
                        <mxPoint x="600" y="-100" as="targetPoint"/>
                    </mxGeometry>
                </mxCell>
                <mxCell id="300" value="" style="endArrow=classic;startArrow=classic;html=1;fontSize=14;fontColor=#FFFFFF;" parent="31" edge="1">
                    <mxGeometry width="50" height="50" relative="1" as="geometry">
                        <mxPoint x="550" y="-50" as="sourcePoint"/>
                        <mxPoint x="600" y="-100" as="targetPoint"/>
                    </mxGeometry>
                </mxCell>
                <mxCell id="301" value="" style="edgeStyle=orthogonalEdgeStyle;html=1;endArrow=oval;elbow=vertical;startArrow=block;startFill=1;endFill=0;strokeColor=#CC6600;rounded=0;fontColor=#009900;strokeWidth=2;" parent="31" source="284" edge="1">
                    <mxGeometry width="100" relative="1" as="geometry">
                        <mxPoint x="589.52" y="-135" as="sourcePoint"/>
                        <mxPoint x="790" y="-260" as="targetPoint"/>
                        <Array as="points"/>
                    </mxGeometry>
                </mxCell>
                <mxCell id="302" value="" style="group" parent="31" vertex="1" connectable="0">
                    <mxGeometry x="746" y="-369.65" width="80" height="110" as="geometry"/>
                </mxCell>
                <mxCell id="303" value="Lambda&amp;nbsp;&lt;br&gt;" style="whiteSpace=wrap;html=1;labelBackgroundColor=none;labelBorderColor=none;fontSize=11;fontColor=#232F3E;strokeColor=#FFFFFF;fillColor=#FFFFFF;fontStyle=1;verticalAlign=bottom;" parent="302" vertex="1">
                    <mxGeometry width="80" height="110" as="geometry"/>
                </mxCell>
                <mxCell id="304" value="" style="sketch=0;points=[[0,0,0],[0.25,0,0],[0.5,0,0],[0.75,0,0],[1,0,0],[0,1,0],[0.25,1,0],[0.5,1,0],[0.75,1,0],[1,1,0],[0,0.25,0],[0,0.5,0],[0,0.75,0],[1,0.25,0],[1,0.5,0],[1,0.75,0]];outlineConnect=0;fontColor=#FFFFFF;gradientDirection=north;fillColor=#2D7600;strokeColor=default;dashed=0;verticalLabelPosition=bottom;verticalAlign=bottom;align=center;fontSize=12;fontStyle=0;aspect=fixed;shape=mxgraph.aws4.resourceIcon;resIcon=mxgraph.aws4.lambda;" parent="302" vertex="1">
                    <mxGeometry x="1" y="0.6499999999999773" width="78" height="78" as="geometry"/>
                </mxCell>
                <mxCell id="1" parent="0"/>
                <mxCell id="83" value="Untitled Layer" parent="0" visible="0"/>
                <mxCell id="17" value="IoT-group" parent="0" visible="0"/>
                <mxCell id="345" value="Background color" parent="0"/>
                <mxCell id="381" value="" style="whiteSpace=wrap;html=1;shadow=0;fillColor=none;strokeColor=#CCCCCC;fontColor=#333333;" parent="345" vertex="1">
                    <mxGeometry x="-54" y="-80" width="1117" height="890" as="geometry"/>
                </mxCell>
                <object label="sensor-group" id="85">
                    <mxCell parent="0"/>
                </object>
                <mxCell id="102" value="" style="rounded=0;arcSize=10;strokeColor=#2D7600;fillColor=none;gradientColor=none;strokeWidth=2;fontColor=none;noLabel=1;" parent="85" vertex="1">
                    <mxGeometry x="-11" y="32" width="200" height="230" as="geometry"/>
                </mxCell>
                <mxCell id="97" value="sensors" parent="0"/>
                <mxCell id="103" value="Generic" style="outlineConnect=0;strokeColor=#FFFFFF;fillColor=#2D7600;dashed=0;verticalLabelPosition=bottom;verticalAlign=top;align=center;html=1;fontSize=12;fontStyle=0;aspect=fixed;shape=mxgraph.aws4.resourceIcon;resIcon=mxgraph.aws4.generic;rounded=0;fontColor=none;noLabel=1;" parent="97" vertex="1">
                    <mxGeometry x="19" y="71" width="60" height="60" as="geometry"/>
                </mxCell>
                <mxCell id="104" value="Generic" style="outlineConnect=0;strokeColor=#FFFFFF;fillColor=#2D7600;dashed=0;verticalLabelPosition=bottom;verticalAlign=top;align=center;html=1;fontSize=12;fontStyle=0;aspect=fixed;shape=mxgraph.aws4.resourceIcon;resIcon=mxgraph.aws4.generic;rounded=0;fontColor=none;noLabel=1;" parent="97" vertex="1">
                    <mxGeometry x="19" y="161" width="60" height="60" as="geometry"/>
                </mxCell>
                <mxCell id="105" value="Generic" style="outlineConnect=0;strokeColor=#FFFFFF;fillColor=#2D7600;dashed=0;verticalLabelPosition=bottom;verticalAlign=top;align=center;html=1;fontSize=12;fontStyle=0;aspect=fixed;shape=mxgraph.aws4.resourceIcon;resIcon=mxgraph.aws4.generic;rounded=0;fontColor=none;noLabel=1;" parent="97" vertex="1">
                    <mxGeometry x="98.5" y="71" width="60" height="60" as="geometry"/>
                </mxCell>
                <mxCell id="106" value="Generic" style="outlineConnect=0;strokeColor=#FFFFFF;fillColor=#2D7600;dashed=0;verticalLabelPosition=bottom;verticalAlign=top;align=center;html=1;fontSize=12;fontStyle=0;aspect=fixed;shape=mxgraph.aws4.resourceIcon;resIcon=mxgraph.aws4.generic;rounded=0;fontColor=none;noLabel=1;" parent="97" vertex="1">
                    <mxGeometry x="98.5" y="161" width="60" height="60" as="geometry"/>
                </mxCell>
                <mxCell id="108" value="actuators-group" parent="0"/>
                <mxCell id="180" value="Generic group" style="fillColor=none;strokeColor=#CC6600;verticalAlign=middle;fontStyle=0;fontColor=none;rounded=0;strokeWidth=2;noLabel=1;" parent="108" vertex="1">
                    <mxGeometry x="-21" y="489" width="200" height="220" as="geometry"/>
                </mxCell>
                <mxCell id="320" value="Sprinklers" style="rounded=0;whiteSpace=wrap;html=1;fontColor=#CC6600;strokeColor=none;fillColor=none;fontStyle=1;fontSize=14;" parent="108" vertex="1">
                    <mxGeometry x="-25" y="448" width="120" height="30" as="geometry"/>
                </mxCell>
                <object label="actuators" id="119">
                    <mxCell parent="0"/>
                </object>
                <mxCell id="439" value="Generic" style="outlineConnect=0;strokeColor=#FFFFFF;fillColor=#CC6600;dashed=0;verticalLabelPosition=bottom;verticalAlign=top;align=center;html=1;fontSize=12;fontStyle=0;aspect=fixed;shape=mxgraph.aws4.resourceIcon;resIcon=mxgraph.aws4.generic;rounded=0;fontColor=none;noLabel=1;" parent="119" vertex="1">
                    <mxGeometry x="11" y="526" width="60" height="60" as="geometry"/>
                </mxCell>
                <mxCell id="440" value="Generic" style="outlineConnect=0;strokeColor=#FFFFFF;fillColor=#CC6600;dashed=0;verticalLabelPosition=bottom;verticalAlign=top;align=center;html=1;fontSize=12;fontStyle=0;aspect=fixed;shape=mxgraph.aws4.resourceIcon;resIcon=mxgraph.aws4.generic;rounded=0;fontColor=none;noLabel=1;" parent="119" vertex="1">
                    <mxGeometry x="11" y="616" width="60" height="60" as="geometry"/>
                </mxCell>
                <mxCell id="441" value="Generic" style="outlineConnect=0;strokeColor=#FFFFFF;fillColor=#CC6600;dashed=0;verticalLabelPosition=bottom;verticalAlign=top;align=center;html=1;fontSize=12;fontStyle=0;aspect=fixed;shape=mxgraph.aws4.resourceIcon;resIcon=mxgraph.aws4.generic;rounded=0;fontColor=none;noLabel=1;" parent="119" vertex="1">
                    <mxGeometry x="90.5" y="526" width="60" height="60" as="geometry"/>
                </mxCell>
                <mxCell id="442" value="Generic" style="outlineConnect=0;strokeColor=#FFFFFF;fillColor=#CC6600;dashed=0;verticalLabelPosition=bottom;verticalAlign=top;align=center;html=1;fontSize=12;fontStyle=0;aspect=fixed;shape=mxgraph.aws4.resourceIcon;resIcon=mxgraph.aws4.generic;rounded=0;fontColor=none;noLabel=1;" parent="119" vertex="1">
                    <mxGeometry x="90.5" y="616" width="60" height="60" as="geometry"/>
                </mxCell>
                <mxCell id="163" value="IoTCore" parent="0"/>
                <mxCell id="419" value="" style="edgeStyle=elbowEdgeStyle;html=1;endArrow=block;elbow=vertical;startArrow=oval;startFill=1;endFill=1;strokeColor=#CC6600;rounded=0;fontColor=#009900;strokeWidth=2;exitX=0.5;exitY=0;exitDx=0;exitDy=0;" parent="163" source="415" edge="1">
                    <mxGeometry width="100" relative="1" as="geometry">
                        <mxPoint x="572" y="520" as="sourcePoint"/>
                        <mxPoint x="572" y="446" as="targetPoint"/>
                        <Array as="points">
                            <mxPoint x="572" y="480"/>
                            <mxPoint x="596" y="500"/>
                            <mxPoint x="1006" y="525.98"/>
                            <mxPoint x="986" y="545.98"/>
                            <mxPoint x="976" y="535.98"/>
                            <mxPoint x="956" y="335.98"/>
                        </Array>
                    </mxGeometry>
                </mxCell>
                <mxCell id="418" value="" style="edgeStyle=orthogonalEdgeStyle;html=1;endArrow=oval;elbow=vertical;startArrow=block;startFill=1;endFill=1;strokeColor=#CC6600;rounded=0;fontColor=#009900;strokeWidth=2;" parent="163" target="202" edge="1">
                    <mxGeometry width="100" relative="1" as="geometry">
                        <mxPoint x="330" y="630" as="sourcePoint"/>
                        <mxPoint x="320" y="426" as="targetPoint"/>
                        <Array as="points">
                            <mxPoint x="280" y="630"/>
                            <mxPoint x="280" y="426"/>
                        </Array>
                    </mxGeometry>
                </mxCell>
                <mxCell id="408" value="" style="edgeStyle=orthogonalEdgeStyle;html=1;endArrow=oval;elbow=vertical;startArrow=block;startFill=1;endFill=1;strokeColor=#CC6600;rounded=0;fontColor=#009900;strokeWidth=2;exitX=0.988;exitY=0.443;exitDx=0;exitDy=0;exitPerimeter=0;" parent="163" source="324" target="407" edge="1">
                    <mxGeometry width="100" relative="1" as="geometry">
                        <mxPoint x="900" y="196.35" as="sourcePoint"/>
                        <mxPoint x="900" y="116.35" as="targetPoint"/>
                        <Array as="points"/>
                    </mxGeometry>
                </mxCell>
                <mxCell id="185" value="" style="edgeStyle=orthogonalEdgeStyle;html=1;endArrow=block;elbow=vertical;startArrow=block;startFill=1;endFill=1;strokeColor=#CC6600;rounded=0;strokeWidth=2;" parent="163" edge="1">
                    <mxGeometry width="100" relative="1" as="geometry">
                        <mxPoint x="80" y="270" as="sourcePoint"/>
                        <mxPoint x="330" y="367" as="targetPoint"/>
                        <Array as="points">
                            <mxPoint x="80" y="367"/>
                        </Array>
                    </mxGeometry>
                </mxCell>
                <mxCell id="186" value="Text" style="edgeLabel;html=1;align=center;verticalAlign=middle;resizable=0;points=[];fontColor=none;noLabel=1;rounded=0;" parent="185" vertex="1" connectable="0">
                    <mxGeometry x="0.2567" y="-3" relative="1" as="geometry">
                        <mxPoint y="11" as="offset"/>
                    </mxGeometry>
                </mxCell>
                <mxCell id="190" value="" style="edgeStyle=orthogonalEdgeStyle;html=1;endArrow=block;elbow=vertical;startArrow=block;startFill=1;endFill=1;strokeColor=#CC6600;rounded=0;fontColor=#009900;fillColor=#60a917;strokeWidth=2;" parent="163" edge="1">
                    <mxGeometry width="100" relative="1" as="geometry">
                        <mxPoint x="80" y="480" as="sourcePoint"/>
                        <mxPoint x="328" y="391" as="targetPoint"/>
                        <Array as="points">
                            <mxPoint x="80" y="391"/>
                        </Array>
                    </mxGeometry>
                </mxCell>
                <mxCell id="197" value="" style="edgeStyle=orthogonalEdgeStyle;html=1;endArrow=block;elbow=vertical;startArrow=block;startFill=1;endFill=1;strokeColor=#CC6600;rounded=0;fontColor=#009900;entryX=1;entryY=0.5;entryDx=0;entryDy=0;entryPerimeter=0;exitX=1.014;exitY=0.56;exitDx=0;exitDy=0;exitPerimeter=0;strokeWidth=2;" parent="163" edge="1">
                    <mxGeometry width="100" relative="1" as="geometry">
                        <mxPoint x="407.98" y="168.97908015768724" as="sourcePoint"/>
                        <mxPoint x="530" y="169" as="targetPoint"/>
                    </mxGeometry>
                </mxCell>
                <mxCell id="198" value="" style="edgeStyle=orthogonalEdgeStyle;html=1;endArrow=block;elbow=vertical;startArrow=oval;startFill=1;endFill=1;strokeColor=#CC6600;rounded=0;fontColor=#009900;strokeWidth=2;entryX=0.5;entryY=1;entryDx=0;entryDy=0;" parent="163" target="338" edge="1">
                    <mxGeometry width="100" relative="1" as="geometry">
                        <mxPoint x="368" y="340" as="sourcePoint"/>
                        <mxPoint x="369" y="270" as="targetPoint"/>
                        <Array as="points">
                            <mxPoint x="368" y="328"/>
                            <mxPoint x="368" y="279"/>
                        </Array>
                    </mxGeometry>
                </mxCell>
                <mxCell id="215" value="" style="edgeStyle=orthogonalEdgeStyle;html=1;endArrow=oval;elbow=vertical;startArrow=block;startFill=1;endFill=1;strokeColor=#CC6600;rounded=0;fontColor=#009900;entryX=0.5;entryY=1;entryDx=0;entryDy=0;strokeWidth=2;exitX=0.494;exitY=0;exitDx=0;exitDy=0;exitPerimeter=0;" parent="163" source="201" target="210" edge="1">
                    <mxGeometry width="100" relative="1" as="geometry">
                        <mxPoint x="570" y="310" as="sourcePoint"/>
                        <mxPoint x="569.5" y="210.00008935611046" as="targetPoint"/>
                        <Array as="points"/>
                    </mxGeometry>
                </mxCell>
                <mxCell id="230" value="" style="edgeStyle=orthogonalEdgeStyle;html=1;endArrow=block;elbow=vertical;startArrow=oval;startFill=1;endFill=1;strokeColor=#CC6600;rounded=0;fontColor=#009900;exitX=1.014;exitY=0.56;exitDx=0;exitDy=0;exitPerimeter=0;strokeWidth=2;" parent="163" edge="1">
                    <mxGeometry width="100" relative="1" as="geometry">
                        <mxPoint x="613.98" y="167.97908015768724" as="sourcePoint"/>
                        <mxPoint x="780" y="168" as="targetPoint"/>
                    </mxGeometry>
                </mxCell>
                <mxCell id="235" value="Telemetry Data" style="rounded=0;whiteSpace=wrap;html=1;fontColor=#CC6600;strokeColor=none;fillColor=none;fontStyle=1;fontSize=15;rotation=-90;" parent="163" vertex="1">
                    <mxGeometry x="527" y="266" width="120" height="30" as="geometry"/>
                </mxCell>
                <mxCell id="240" value="" style="edgeStyle=orthogonalEdgeStyle;html=1;endArrow=oval;elbow=vertical;startArrow=block;startFill=1;endFill=0;strokeColor=#CC6600;rounded=0;fontColor=#009900;strokeWidth=2;entryX=0.5;entryY=1;entryDx=0;entryDy=0;" parent="163" source="201" target="324" edge="1">
                    <mxGeometry width="100" relative="1" as="geometry">
                        <mxPoint x="579.52" y="335" as="sourcePoint"/>
                        <mxPoint x="780" y="210" as="targetPoint"/>
                        <Array as="points">
                            <mxPoint x="819" y="410"/>
                        </Array>
                    </mxGeometry>
                </mxCell>
                <mxCell id="306" value="Aggregate Data" style="rounded=0;whiteSpace=wrap;html=1;fontColor=#CC6600;strokeColor=none;fillColor=none;fontStyle=1;fontSize=15;" parent="163" vertex="1">
                    <mxGeometry x="622" y="413" width="120" height="30" as="geometry"/>
                </mxCell>
                <mxCell id="319" value="Soil Moisture Sensors" style="rounded=0;whiteSpace=wrap;html=1;fontColor=#CC6600;strokeColor=none;fillColor=none;fontStyle=1;fontSize=14;" parent="163" vertex="1">
                    <mxGeometry x="18" y="-2" width="170" height="30" as="geometry"/>
                </mxCell>
                <mxCell id="326" value="" style="group" parent="163" vertex="1" connectable="0">
                    <mxGeometry x="779" y="109" width="80" height="122" as="geometry"/>
                </mxCell>
                <mxCell id="323" value="" style="group;strokeColor=#FFFFFF;container=0;" parent="326" vertex="1" connectable="0">
                    <mxGeometry width="80" height="122" as="geometry"/>
                </mxCell>
                <mxCell id="324" value="Telemetry Data Processor" style="whiteSpace=wrap;html=1;labelBackgroundColor=none;labelBorderColor=none;fontSize=11;fontColor=#232F3E;strokeColor=#4D4D4D;fillColor=#FFFFFF;fontStyle=1;verticalAlign=bottom;backgroundOutline=1;" parent="326" vertex="1">
                    <mxGeometry width="80" height="122" as="geometry"/>
                </mxCell>
                <mxCell id="325" value="" style="sketch=0;points=[[0,0,0],[0.25,0,0],[0.5,0,0],[0.75,0,0],[1,0,0],[0,1,0],[0.25,1,0],[0.5,1,0],[0.75,1,0],[1,1,0],[0,0.25,0],[0,0.5,0],[0,0.75,0],[1,0.25,0],[1,0.5,0],[1,0.75,0]];outlineConnect=0;fontColor=#FFFFFF;gradientDirection=north;fillColor=#2D7600;strokeColor=#FFFFFF;dashed=0;verticalLabelPosition=bottom;verticalAlign=bottom;align=center;fontSize=12;fontStyle=0;aspect=fixed;shape=mxgraph.aws4.resourceIcon;resIcon=mxgraph.aws4.lambda;" parent="326" vertex="1">
                    <mxGeometry x="1" y="1.1090909090909091" width="78" height="78" as="geometry"/>
                </mxCell>
                <mxCell id="331" value="" style="group" parent="163" vertex="1" connectable="0">
                    <mxGeometry x="530" y="336" width="80" height="110" as="geometry"/>
                </mxCell>
                <mxCell id="327" value="" style="group" parent="331" vertex="1" connectable="0">
                    <mxGeometry width="80" height="110" as="geometry"/>
                </mxCell>
                <mxCell id="328" value="" style="group;strokeColor=#FFFFFF;container=0;" parent="327" vertex="1" connectable="0">
                    <mxGeometry width="80" height="110" as="geometry"/>
                </mxCell>
                <mxCell id="329" value="" style="whiteSpace=wrap;html=1;labelBackgroundColor=none;labelBorderColor=none;fontSize=11;fontColor=#232F3E;strokeColor=#4D4D4D;fillColor=#FFFFFF;fontStyle=1;verticalAlign=bottom;backgroundOutline=1;" parent="327" vertex="1">
                    <mxGeometry width="80" height="110" as="geometry"/>
                </mxCell>
                <object label="Amazon DynamoDB" id="201">
                    <mxCell style="outlineConnect=0;fontColor=#232F3E;gradientColor=none;strokeColor=#FFFFFF;fillColor=#2D7600;dashed=0;verticalLabelPosition=middle;verticalAlign=bottom;align=center;html=1;whiteSpace=wrap;fontSize=10;fontStyle=1;spacing=3;shape=mxgraph.aws4.productIcon;prIcon=mxgraph.aws4.dynamodb;rounded=0;" parent="331" vertex="1">
                        <mxGeometry width="80" height="110" as="geometry"/>
                    </mxCell>
                </object>
                <mxCell id="342" value="" style="group" parent="163" vertex="1" connectable="0">
                    <mxGeometry x="530" y="110.35000000000002" width="80" height="110" as="geometry"/>
                </mxCell>
                <mxCell id="227" value="" style="group;strokeColor=#4D4D4D;container=0;" parent="342" vertex="1" connectable="0">
                    <mxGeometry width="80" height="110" as="geometry"/>
                </mxCell>
                <mxCell id="210" value="Telemetry Datastream" style="whiteSpace=wrap;html=1;labelBackgroundColor=none;labelBorderColor=none;fontSize=11;fontColor=#232F3E;strokeColor=#4D4D4D;fillColor=#FFFFFF;fontStyle=1;verticalAlign=bottom;" parent="342" vertex="1">
                    <mxGeometry width="80" height="110" as="geometry"/>
                </mxCell>
                <mxCell id="205" value="c" style="points=[[0,0,0],[0.25,0,0],[0.5,0,0],[0.75,0,0],[1,0,0],[0,1,0],[0.25,1,0],[0.5,1,0],[0.75,1,0],[1,1,0],[0,0.25,0],[0,0.5,0],[0,0.75,0],[1,0.25,0],[1,0.5,0],[1,0.75,0]];outlineConnect=0;fontColor=#232F3E;gradientDirection=north;fillColor=#2D7600;strokeColor=#FFFFFF;dashed=0;verticalLabelPosition=middle;verticalAlign=bottom;align=center;html=1;fontSize=10;fontStyle=1;aspect=fixed;shape=mxgraph.aws4.resourceIcon;resIcon=mxgraph.aws4.kinesis_data_streams;rounded=0;rotation=0;backgroundOutline=0;whiteSpace=wrap;labelBackgroundColor=none;labelBorderColor=none;labelPosition=center;" parent="342" vertex="1">
                    <mxGeometry x="1" y="1" width="78" height="78" as="geometry"/>
                </mxCell>
                <mxCell id="336" value="" style="group;strokeColor=#4D4D4D;" parent="163" vertex="1" connectable="0">
                    <mxGeometry x="328" y="116.35000000000002" width="79" height="109" as="geometry"/>
                </mxCell>
                <mxCell id="337" value="" style="group;strokeColor=#FFFFFF;container=0;" parent="336" vertex="1" connectable="0">
                    <mxGeometry width="79" height="109" as="geometry"/>
                </mxCell>
                <mxCell id="338" value="Telemetry Data Rules" style="whiteSpace=wrap;html=1;labelBackgroundColor=none;labelBorderColor=none;fontSize=11;fontColor=#232F3E;strokeColor=#4D4D4D;fillColor=#FFFFFF;fontStyle=1;verticalAlign=bottom;backgroundOutline=1;" parent="336" vertex="1">
                    <mxGeometry width="79" height="109" as="geometry"/>
                </mxCell>
                <mxCell id="212" value="" style="sketch=0;outlineConnect=0;fontColor=#232F3E;gradientColor=none;fillColor=#2D7600;strokeColor=#FFFFFF;dashed=0;verticalLabelPosition=bottom;verticalAlign=bottom;align=center;html=1;fontSize=12;fontStyle=1;pointerEvents=1;shape=mxgraph.aws4.rule;shadow=0;labelBackgroundColor=default;" parent="336" vertex="1">
                    <mxGeometry y="3" width="79" height="79" as="geometry"/>
                </mxCell>
                <mxCell id="399" value="Register / Data" style="rounded=0;whiteSpace=wrap;html=1;fontColor=#CC6600;strokeColor=none;fillColor=none;fontStyle=1;fontSize=14;" parent="163" vertex="1">
                    <mxGeometry x="205" y="337" width="120" height="30" as="geometry"/>
                </mxCell>
                <mxCell id="335" value="" style="group" parent="163" vertex="1" connectable="0">
                    <mxGeometry x="333" y="340" width="80" height="110" as="geometry"/>
                </mxCell>
                <mxCell id="332" value="" style="group" parent="335" vertex="1" connectable="0">
                    <mxGeometry width="80" height="110" as="geometry"/>
                </mxCell>
                <mxCell id="333" value="" style="group;strokeColor=#FFFFFF;container=0;" parent="332" vertex="1" connectable="0">
                    <mxGeometry width="80" height="110" as="geometry"/>
                </mxCell>
                <mxCell id="334" value="" style="whiteSpace=wrap;html=1;labelBackgroundColor=none;labelBorderColor=none;fontSize=11;fontColor=#232F3E;strokeColor=#4D4D4D;fillColor=#FFFFFF;fontStyle=1;verticalAlign=bottom;backgroundOutline=1;" parent="332" vertex="1">
                    <mxGeometry width="80" height="110" as="geometry"/>
                </mxCell>
                <mxCell id="202" value="Amazon IoT Core" style="sketch=0;outlineConnect=0;fontColor=#232F3E;gradientColor=none;strokeColor=#ffffff;fillColor=#2D7600;dashed=0;verticalLabelPosition=middle;verticalAlign=bottom;align=center;html=1;whiteSpace=wrap;fontSize=10;fontStyle=1;spacing=3;shape=mxgraph.aws4.productIcon;prIcon=mxgraph.aws4.iot_core;" parent="335" vertex="1">
                    <mxGeometry width="80" height="110" as="geometry"/>
                </mxCell>
                <mxCell id="402" value="Device Metadata" style="rounded=0;whiteSpace=wrap;html=1;fontColor=#CC6600;strokeColor=none;fillColor=none;fontStyle=1;fontSize=15;rotation=-90;" parent="163" vertex="1">
                    <mxGeometry x="232" y="510" width="131" height="32.17" as="geometry"/>
                </mxCell>
                <mxCell id="403" value="Telemetry Data" style="rounded=0;whiteSpace=wrap;html=1;fontColor=#CC6600;strokeColor=none;fillColor=none;fontStyle=1;fontSize=15;rotation=-90;" parent="163" vertex="1">
                    <mxGeometry x="324" y="271" width="120" height="30" as="geometry"/>
                </mxCell>
                <mxCell id="409" value="" style="group;strokeColor=#4D4D4D;fontSize=12;" parent="163" vertex="1" connectable="0">
                    <mxGeometry x="332" y="567.65" width="79" height="132.35" as="geometry"/>
                </mxCell>
                <mxCell id="410" value="" style="group;strokeColor=#FFFFFF;container=0;" parent="409" vertex="1" connectable="0">
                    <mxGeometry width="79" height="110.97038461538462" as="geometry"/>
                </mxCell>
                <mxCell id="411" value="Device Metadata Rules" style="whiteSpace=wrap;html=1;labelBackgroundColor=none;labelBorderColor=none;fontSize=11;fontColor=#232F3E;strokeColor=#4D4D4D;fillColor=#FFFFFF;fontStyle=1;verticalAlign=bottom;backgroundOutline=1;" parent="409" vertex="1">
                    <mxGeometry width="79" height="132.35" as="geometry"/>
                </mxCell>
                <mxCell id="412" value="" style="sketch=0;outlineConnect=0;fontColor=#232F3E;gradientColor=none;fillColor=#2D7600;strokeColor=#FFFFFF;dashed=0;verticalLabelPosition=bottom;verticalAlign=bottom;align=center;html=1;fontSize=12;fontStyle=1;pointerEvents=1;shape=mxgraph.aws4.rule;shadow=0;labelBackgroundColor=default;" parent="409" vertex="1">
                    <mxGeometry y="3.0542307692307693" width="79" height="80.42807692307693" as="geometry"/>
                </mxCell>
                <mxCell id="413" value="" style="group" parent="163" vertex="1" connectable="0">
                    <mxGeometry x="532" y="567" width="80" height="120.65" as="geometry"/>
                </mxCell>
                <mxCell id="414" value="" style="group;strokeColor=#4D4D4D;container=0;" parent="413" vertex="1" connectable="0">
                    <mxGeometry width="80" height="120.65" as="geometry"/>
                </mxCell>
                <mxCell id="415" value="Device metadata Datastream" style="whiteSpace=wrap;html=1;labelBackgroundColor=none;labelBorderColor=none;fontSize=11;fontColor=#232F3E;strokeColor=#4D4D4D;fillColor=#FFFFFF;fontStyle=1;verticalAlign=bottom;" parent="413" vertex="1">
                    <mxGeometry width="80" height="120.65" as="geometry"/>
                </mxCell>
                <mxCell id="416" value="c" style="points=[[0,0,0],[0.25,0,0],[0.5,0,0],[0.75,0,0],[1,0,0],[0,1,0],[0.25,1,0],[0.5,1,0],[0.75,1,0],[1,1,0],[0,0.25,0],[0,0.5,0],[0,0.75,0],[1,0.25,0],[1,0.5,0],[1,0.75,0]];outlineConnect=0;fontColor=#232F3E;gradientDirection=north;fillColor=#2D7600;strokeColor=#FFFFFF;dashed=0;verticalLabelPosition=middle;verticalAlign=bottom;align=center;html=1;fontSize=10;fontStyle=1;aspect=fixed;shape=mxgraph.aws4.resourceIcon;resIcon=mxgraph.aws4.kinesis_data_streams;rounded=0;rotation=0;backgroundOutline=0;whiteSpace=wrap;labelBackgroundColor=none;labelBorderColor=none;labelPosition=center;" parent="413" vertex="1">
                    <mxGeometry x="1" y="1.096818181818182" width="78" height="78" as="geometry"/>
                </mxCell>
                <mxCell id="417" value="" style="edgeStyle=orthogonalEdgeStyle;html=1;endArrow=block;elbow=vertical;startArrow=block;startFill=1;endFill=1;strokeColor=#CC6600;rounded=0;fontColor=#009900;entryX=1;entryY=0.5;entryDx=0;entryDy=0;entryPerimeter=0;exitX=1.014;exitY=0.56;exitDx=0;exitDy=0;exitPerimeter=0;strokeWidth=2;" parent="163" edge="1">
                    <mxGeometry width="100" relative="1" as="geometry">
                        <mxPoint x="412.98" y="619.6290801576873" as="sourcePoint"/>
                        <mxPoint x="535" y="619.65" as="targetPoint"/>
                        <Array as="points">
                            <mxPoint x="500" y="620"/>
                            <mxPoint x="500" y="620"/>
                        </Array>
                    </mxGeometry>
                </mxCell>
                <mxCell id="421" value="Device Metadata" style="rounded=0;whiteSpace=wrap;html=1;fontColor=#CC6600;strokeColor=none;fillColor=none;fontStyle=1;fontSize=14;rotation=-90;" parent="163" vertex="1">
                    <mxGeometry x="490" y="493" width="120" height="30" as="geometry"/>
                </mxCell>
                <mxCell id="422" value="Register / Set State" style="rounded=0;whiteSpace=wrap;html=1;fontColor=#CC6600;strokeColor=none;fillColor=none;fontStyle=1;fontSize=14;" parent="163" vertex="1">
                    <mxGeometry x="190" y="394" width="140" height="30" as="geometry"/>
                </mxCell>
                <mxCell id="438" value="" style="group" parent="163" vertex="1" connectable="0">
                    <mxGeometry x="938" y="108.35" width="80" height="111.65" as="geometry"/>
                </mxCell>
                <mxCell id="434" value="" style="group" parent="438" vertex="1" connectable="0">
                    <mxGeometry y="1.6500000000000057" width="80" height="110" as="geometry"/>
                </mxCell>
                <mxCell id="435" value="" style="group;strokeColor=#FFFFFF;container=0;" parent="434" vertex="1" connectable="0">
                    <mxGeometry width="80" height="110" as="geometry"/>
                </mxCell>
                <mxCell id="436" value="" style="whiteSpace=wrap;html=1;labelBackgroundColor=none;labelBorderColor=none;fontSize=11;fontColor=#232F3E;strokeColor=#4D4D4D;fillColor=#FFFFFF;fontStyle=1;verticalAlign=bottom;backgroundOutline=1;" parent="434" vertex="1">
                    <mxGeometry width="80" height="110" as="geometry"/>
                </mxCell>
                <mxCell id="407" value="Weather Data API" style="sketch=0;outlineConnect=0;fontColor=#232F3E;gradientColor=none;strokeColor=#ffffff;fillColor=#2D7600;dashed=0;verticalLabelPosition=middle;verticalAlign=bottom;align=center;html=1;whiteSpace=wrap;fontSize=12;fontStyle=1;spacing=3;shape=mxgraph.aws4.productIcon;prIcon=mxgraph.aws4.cloudtrail;shadow=0;" parent="438" vertex="1">
                    <mxGeometry width="80" height="110" as="geometry"/>
                </mxCell>
                <mxCell id="443" value="AgriTech&amp;nbsp; Farm Water Management" style="rounded=0;whiteSpace=wrap;html=1;fontColor=#CC6600;strokeColor=none;fillColor=none;fontStyle=1;fontSize=25;" parent="163" vertex="1">
                    <mxGeometry x="274" y="-62" width="450" height="30" as="geometry"/>
                </mxCell>
                <mxCell id="311" value="Analytics" parent="0" visible="0"/>
                <mxCell id="312" value="" style="group" parent="311" vertex="1" connectable="0">
                    <mxGeometry x="750" y="470" width="80" height="110" as="geometry"/>
                </mxCell>
                <mxCell id="313" value="Analytics" style="whiteSpace=wrap;html=1;labelBackgroundColor=none;labelBorderColor=none;fontSize=11;fontColor=#232F3E;strokeColor=#FFFFFF;fillColor=#FFFFFF;fontStyle=1;verticalAlign=bottom;" parent="312" vertex="1">
                    <mxGeometry width="80" height="110" as="geometry"/>
                </mxCell>
                <mxCell id="314" value="" style="sketch=0;points=[[0,0,0],[0.25,0,0],[0.5,0,0],[0.75,0,0],[1,0,0],[0,1,0],[0.25,1,0],[0.5,1,0],[0.75,1,0],[1,1,0],[0,0.25,0],[0,0.5,0],[0,0.75,0],[1,0.25,0],[1,0.5,0],[1,0.75,0]];outlineConnect=0;fontColor=#232F3E;gradientColor=#60A337;gradientDirection=north;fillColor=#277116;strokeColor=#ffffff;dashed=0;verticalLabelPosition=bottom;verticalAlign=top;align=center;html=1;fontSize=12;fontStyle=0;aspect=fixed;shape=mxgraph.aws4.resourceIcon;resIcon=mxgraph.aws4.iot_analytics;" parent="312" vertex="1">
                    <mxGeometry x="1" y="0.9999999999999716" width="78" height="78" as="geometry"/>
                </mxCell>
                <mxCell id="316" value="" style="edgeStyle=orthogonalEdgeStyle;html=1;endArrow=block;elbow=vertical;startArrow=oval;startFill=1;endFill=1;strokeColor=#CC6600;rounded=0;fontColor=#009900;strokeWidth=2;entryX=0.013;entryY=0.618;entryDx=0;entryDy=0;entryPerimeter=0;" parent="311" target="313" edge="1">
                    <mxGeometry width="100" relative="1" as="geometry">
                        <mxPoint x="570" y="440" as="sourcePoint"/>
                        <mxPoint x="750" y="224" as="targetPoint"/>
                        <Array as="points">
                            <mxPoint x="570" y="538"/>
                        </Array>
                    </mxGeometry>
                </mxCell>
            </root>
        </mxGraphModel>
    </diagram>
</mxfile>